<?xml version="1.0" encoding="UTF-8"?>
<svg width="128pt" height="128pt" version="1.1" viewBox="0 0 128 128" xmlns="http://www.w3.org/2000/svg">
 <g>
  <path d="m127.93 47.473h-85.332l85.137-19.664-4.3438-18.844c-1.2188-5.2812-6.4297-8.5859-11.641-7.3828l-104.24 24.082c-4.4297 1.0234-7.4375 4.9766-7.4922 9.3906h-0.015625l0.023438 81.789c0 5.4219 4.3906 9.8203 9.8047 9.8203h108.36c5.4141 0 9.8047-4.3984 9.8047-9.8203zm-27.34-35.676 16.859 11.008-13 3-16.859-11zm-26.227 6.0625 16.859 11.008-13 3-16.859-11zm-25.594 5.9141 16.859 11.008-13 3-16.859-11.008zm-26.152 6.0391 16.852 11.008-13 3-16.852-11zm95.562 87.027h-108.38v-59.57h108.38z"/>
  <path d="m53.773 71.523v31.879l25.508-15.941z"/>
 </g>
</svg>
